<?xml version="1.0" encoding="utf-8"?>
<!-- Generator: Adobe Illustrator 21.1.0, SVG Export Plug-In . SVG Version: 6.00 Build 0)  -->
<svg version="1.1" id="Layer_1" xmlns="http://www.w3.org/2000/svg" xmlns:xlink="http://www.w3.org/1999/xlink" x="0px" y="0px"
	 viewBox="0 0 461.3 55.3" style="enable-background:new 0 0 461.3 55.3;" xml:space="preserve">
<style type="text/css">
	.st0{fill:#1B75BC;}
	.st1{fill:none;}
	.st2{filter:url(#Adobe_OpacityMaskFilter);}
	.st3{fill:url(#SVGID_2_);}
	.st4{mask:url(#SVGID_1_);fill:#00AEEF;}
	.st5{fill:#999999;}
</style>
<g>
	<path d="M76.3,48.8c-1.1-0.1-2.2-0.4-3.2-0.8c-1-0.4-1.9-1-2.7-1.8c-0.6-0.7-1-1.4-1.4-2.1c-0.3-0.8-0.6-1.5-0.7-2.3V27.7
		c0.2-1.2,0.5-2.3,1-3.3c0.4-1,1.1-2,2-2.9c0.7-0.7,1.5-1.2,2.3-1.5c0.8-0.3,1.8-0.5,2.7-0.6h23.1c1,0.1,2,0.4,2.9,0.7
		c0.9,0.4,1.7,1,2.5,1.9c0.6,0.7,1,1.6,1.2,2.4c0.2,0.9,0.3,1.8,0.2,2.7c-0.1,0.3-0.3,0.6-0.5,0.9c-0.2,0.3-0.5,0.5-0.8,0.6
		l-1.3,0.1l-1.1-0.7c-0.4-0.5-0.6-1.2-0.6-1.9c0-0.7-0.2-1.3-0.8-1.8l-1.5-0.7H76.3c-0.4,0.1-0.9,0.2-1.3,0.4
		c-0.4,0.2-0.8,0.5-1.2,0.9c-0.4,0.5-0.7,1-0.9,1.6c-0.2,0.6-0.4,1.1-0.4,1.7v12.4c0.1,0.4,0.2,0.9,0.3,1.3c0.2,0.4,0.4,0.8,0.6,1.2
		c0.4,0.3,0.8,0.5,1.2,0.7c0.4,0.2,0.8,0.3,1.3,0.4h23.6c1.1-0.3,1.8-1.1,1.9-2.3l0-4.9H81.8c-0.8-0.2-1.3-0.4-1.4-0.7
		c-0.2-0.3-0.3-0.6-0.4-0.9c-0.1-0.3-0.1-0.7,0-1.2c0.3-1.1,0.9-1.6,1.9-1.6h22.1c1.2,0.1,1.8,0.8,2,2.1v7.5
		c-0.1,0.9-0.3,1.9-0.7,2.7c-0.4,0.9-1,1.7-1.8,2.3c-0.6,0.4-1.2,0.7-1.8,1c-0.7,0.2-1.4,0.4-2.1,0.5H76.3z"/>
	<path d="M112.2,48.8c-0.6-0.1-1.1-0.4-1.5-0.9l-0.4-0.8V21.1c0.5-1.1,1.2-1.6,2.3-1.6c0.7,0.1,1.2,0.4,1.7,1l0.3,0.7v23.3h27.4
		c1.1,0.3,1.7,1.1,1.9,2.3c-0.3,1.2-1,1.9-2.1,2.1H112.2z"/>
	<path d="M152.1,48.8c-2.2-0.1-4.2-1.1-5.9-2.7c-1.2-1.5-1.9-3.2-2.2-5.2V27.2c0.3-2.1,1.2-4,2.8-5.7c1.6-1.2,3.3-1.9,5.2-2.1h21.1
		c2.5,0.2,4.6,1.2,6.4,3.1c1.2,1.6,1.9,3.4,2.1,5.5v12.2c-0.1,2.5-1.2,4.7-3.1,6.6c-1.5,1.2-3.2,1.9-5.1,2H152.1z M175.6,43.6
		c0.9-0.9,1.4-1.9,1.6-3.1V27.8c-0.1-1.1-0.5-2.1-1.4-2.9c-0.7-0.6-1.5-1-2.4-1.1h-21.4c-0.9,0.1-1.7,0.5-2.3,1.1
		c-0.7,0.9-1.1,1.9-1.3,3.1v12.2c0.1,1.2,0.7,2.3,1.5,3.3c0.7,0.5,1.4,0.8,2.2,0.9h21.5L175.6,43.6z"/>
	<path d="M195.8,48.8c-0.6-0.1-1.1-0.4-1.5-0.9l-11.2-25.7c-0.2-0.9,0.1-1.6,0.9-2.3c0.7-0.3,1.2-0.5,1.7-0.4c0.5,0.1,0.9,0.4,1.4,1
		l8.9,20.5l8.6-20.4c0.4-0.8,1-1.1,2-1c0.6,0.1,1.1,0.3,1.5,0.9l8.9,20.3l7.8-20.1c0.6-0.8,1.2-1.1,1.9-1.1c0.7,0.1,1.3,0.3,1.7,0.9
		c0.4,0.5,0.5,1.1,0.5,1.9L219,48c-0.5,0.5-1.1,0.8-1.8,0.7c-0.7,0-1.2-0.3-1.7-0.8l-9-20.6l-8.6,20.5
		C197.4,48.5,196.7,48.8,195.8,48.8z"/>
	<path d="M232.7,48.8c-0.3-0.1-0.5-0.2-0.8-0.3c-0.3-0.1-0.5-0.3-0.7-0.6l-0.4-0.8V32c0.3-1,0.8-1.5,1.5-1.6h25.1
		c1.2-0.2,2-0.6,2.4-1c0.4-0.4,0.7-0.9,0.8-1.5c0.1-0.6,0.1-1.1,0-1.6c-0.4-1.6-1.4-2.5-2.9-2.7h-25.3l-1.2-0.7
		c-0.2-0.3-0.4-0.6-0.5-0.9c-0.1-0.3-0.1-0.7-0.1-1.1c0.3-0.9,0.8-1.5,1.5-1.6h26.1c0.9,0.2,1.7,0.5,2.5,0.9c0.8,0.4,1.5,1,2.2,1.7
		c0.7,0.9,1.2,1.8,1.5,2.9c0.3,1,0.4,2.1,0.2,3.3c-0.1,0.7-0.3,1.3-0.6,1.9c-0.3,0.6-0.6,1.1-1,1.7c0.9,0.4,1.8,1,2.6,1.8
		c0.8,0.7,1.4,1.6,1.8,2.5c0.2,0.7,0.4,1.3,0.5,2c0.1,0.7,0.2,1.4,0.2,2.1c-0.1,1.2-0.3,2.4-0.9,3.5c-0.5,1.1-1.3,2.1-2.3,3
		c-1,0.8-2.1,1.4-3.4,1.8c-1.2,0.4-2.5,0.6-3.7,0.8H232.7z M261.8,43.3c0.4-0.2,0.8-0.6,1.2-1c0.4-0.4,0.6-0.9,0.8-1.3l0.2-2.6
		c-0.1-0.4-0.2-0.9-0.5-1.3c-0.3-0.4-0.6-0.8-0.9-1.1c-0.6-0.4-1.2-0.8-1.9-1c-0.7-0.2-1.4-0.4-2.2-0.4H235v9.8h23.5
		c0.6-0.1,1.1-0.2,1.6-0.4C260.7,43.8,261.2,43.6,261.8,43.3z"/>
	<path d="M278.6,48.8c-2.2-0.1-4.2-1.1-5.9-2.7c-1.2-1.5-1.9-3.2-2.2-5.2V27.2c0.3-2.1,1.2-4,2.8-5.7c1.6-1.2,3.3-1.9,5.2-2.1h21.1
		c2.5,0.2,4.6,1.2,6.4,3.1c1.2,1.6,1.9,3.4,2.1,5.5v12.2c-0.1,2.5-1.2,4.7-3.1,6.6c-1.5,1.2-3.2,1.9-5.1,2H278.6z M302.1,43.6
		c0.9-0.9,1.4-1.9,1.6-3.1V27.8c-0.1-1.1-0.5-2.1-1.4-2.9c-0.7-0.6-1.5-1-2.4-1.1h-21.4c-0.9,0.1-1.7,0.5-2.3,1.1
		c-0.7,0.9-1.2,1.9-1.3,3.1v12.2c0.1,1.2,0.7,2.3,1.5,3.3c0.7,0.5,1.4,0.8,2.2,0.9h21.5L302.1,43.6z"/>
	<path d="M321.4,48.8c-0.6-0.1-1.1-0.4-1.5-0.9l-11.2-25.7c-0.2-0.9,0.1-1.6,0.9-2.3c0.7-0.3,1.2-0.5,1.7-0.4c0.5,0.1,0.9,0.4,1.4,1
		l8.9,20.5l8.6-20.4c0.4-0.8,1-1.1,2-1c0.6,0.1,1.1,0.3,1.5,0.9l8.9,20.3l7.8-20.1c0.6-0.8,1.2-1.1,1.9-1.1c0.7,0.1,1.3,0.3,1.7,0.9
		c0.4,0.5,0.5,1.1,0.5,1.9l-10,25.8c-0.5,0.5-1.1,0.8-1.8,0.7c-0.7,0-1.2-0.3-1.7-0.8l-9-20.6l-8.6,20.5
		C322.9,48.5,322.2,48.8,321.4,48.8z"/>
	<path d="M358.2,48.8c-0.6-0.1-1.1-0.4-1.5-0.9l-0.4-0.8V21.1c0.5-1.1,1.2-1.6,2.3-1.6c0.7,0.1,1.2,0.4,1.7,1l0.3,0.7v23.3h27.4
		c1.1,0.3,1.7,1.1,1.9,2.3c-0.3,1.2-1,1.9-2.1,2.1H358.2z"/>
	<g>
		<path class="st0" d="M384.1,16.7l-0.1,7.4l5.4-1l-0.4,3.4l-5,1c0,4.7,0,9.6-0.1,14.2l-5,1l0.2-25.1c-2.5,0.7-5,1.8-6.1,3.3
			c-1,1.3-0.3,4.1,1.6,6.4l-4.5,3.2c-1.6-5.1-1-8.8,1.1-11.3c1.8-2.1,4.6-3.5,7.9-4.5c1.4-0.4,2.4-0.7,3.8-0.9
			c2.2-0.4,6.4-1.3,9.4-1.8l-0.4,3.5L384.1,16.7z"/>
		<path class="st0" d="M407.1,19.6l-2.8,3.4c-3.4-1.6-5.5,1.7-6.8,5.1l0,10.9l-5.1,1l0.2-18.9l5-1l0,4.1
			C399.1,20.1,401.8,17.7,407.1,19.6z"/>
		<path class="st0" d="M421.6,27.9c-1.8,5.8-4.5,7.7-8.7,8.4c-6.9,1.1-8.7-7.5-6.3-13.6c1.9-4.8,6.5-6.6,8.9-5.3
			c2.1,1.1,2.7,3.9,2,6.2c-1.1,3.3-3.9,5-7,5.5c0.4,1.7,1.4,3.6,3.1,4.1c3,0.8,5.6-2,6.7-5.1L421.6,27.9z M410.2,27.5
			c5.8-0.9,5.1-7.9,4-8.5c-0.8-0.4-2.3,0.6-3.2,2.9c-0.5,1.3-0.9,3.1-0.9,5.2C410.2,27.2,410.2,27.4,410.2,27.5z"/>
		<path class="st0" d="M430.4,18.7c0.3-1.2,0.6-3.3-1.6-3.1c-0.8,0-1.9,0.5-2.4,1.1c-1,0.7-1.4,1.9-1.2,2.6c0.3,0.8,0.4,0.9,1,1.3
			c0.7,0.4,1.7,0.9,2.9,1.2c1,0.3,2.2,0.7,3.3,1.2c0.9,0.5,1.6,1.1,2.1,1.9c3.3,7.2-12.4,12.1-14.6,6.4c-0.6-1.7,0.1-3.9,2.1-5.3
			l3.1,1.8c-2.1,1.1-2.9,2.5-2.2,3.4c0.7,1.1,3.2,1,5.1-0.2c1.1-0.7,1.9-1.6,2.1-2.8c0.3-1.3-1.2-2.1-2.4-2.7
			c-1.4-0.5-2.2-0.6-3.2-1.1c-1-0.4-2.3-1.1-3-1.9c-1.9-1.8-1.9-4.6,1-6.5c1.6-1.1,3.4-1.7,5.3-1.9c2.7-0.4,5,0.3,6.3,2
			c0.5,0.8,0.8,2,0.7,3.1L430.4,18.7z"/>
		<path class="st0" d="M457,21c-1.4,8.9-11.3,10.8-11.4,3.7c0-3.6-0.1-6.7-0.1-9.6c0-4.1-3.2-1.1-4.2,2.3l-0.1,13.2l-5,1l0.2-26.4
			l4.8-0.9l-0.1,10c3.1-4.8,9.2-5.7,9.3,2.5c0.1,2.6,0.1,5.4,0.1,8c0.1,4.5,4.5,0.3,5-3.4L457,21z"/>
	</g>
	<path class="st1" d="M54.6,23.8"/>
	<path class="st1" d="M50.5,27.7"/>
	<g>
		<g>
			<defs>
				<filter id="Adobe_OpacityMaskFilter" filterUnits="userSpaceOnUse" x="16.1" y="14.6" width="23.9" height="23.9">
					
						<feColorMatrix  type="matrix" values="-1 0 0 0 1  0 -1 0 0 1  0 0 -1 0 1  0 0 0 1 0" color-interpolation-filters="sRGB" result="source"/>
				</filter>
			</defs>
			<mask maskUnits="userSpaceOnUse" x="16.1" y="14.6" width="23.9" height="23.9" id="SVGID_1_">
				<g class="st2">
					<radialGradient id="SVGID_2_" cx="28.0546" cy="26.5802" r="11.941" gradientUnits="userSpaceOnUse">
						<stop  offset="0" style="stop-color:#000000"/>
						<stop  offset="1" style="stop-color:#FFFFFF"/>
					</radialGradient>
					<circle class="st3" cx="28.1" cy="26.6" r="11.9"/>
				</g>
			</mask>
			<circle class="st4" cx="28.1" cy="26.6" r="11.9"/>
		</g>
		<path class="st5" d="M50.5,27.9C50.2,39.3,41,48.4,29.5,48.4C18,48.4,8.6,39.1,8.6,27.5C8.6,16.2,17.5,7,28.6,6.6l0-4.1
			C15.1,2.9,4.4,14,4.4,27.7c0,13.9,11.3,25.3,25.3,25.3c13.9,0,25.3-11.3,25.3-25.3c0-1.2-0.1-2.5-0.3-3.6H27.4v3.8l23.1,0
			L50.5,27.9"/>
		<circle class="st0" cx="28.1" cy="26.6" r="3.7"/>
	</g>
	<g>
		<path d="M450.7,3.8v0.6h-1.2v3.2h-0.8V4.4h-1.2V3.8H450.7z M454.8,7.6l-0.1-2.2c0-0.3,0-0.7,0-1.1h0c-0.1,0.3-0.2,0.8-0.3,1.1
			l-0.7,2.1h-0.8l-0.7-2.2c-0.1-0.3-0.2-0.7-0.3-1.1h0c0,0.4,0,0.7,0,1.1l-0.1,2.2h-0.7l0.3-3.8h1.1l0.7,1.9c0.1,0.3,0.2,0.6,0.3,1
			h0c0.1-0.4,0.2-0.7,0.3-1l0.7-1.9h1.1l0.3,3.8H454.8z"/>
	</g>
</g>
</svg>
