<?xml version="1.0" encoding="utf-8"?>
<!-- Generator: Adobe Illustrator 21.1.0, SVG Export Plug-In . SVG Version: 6.00 Build 0)  -->
<svg version="1.1" id="Layer_1" xmlns="http://www.w3.org/2000/svg" xmlns:xlink="http://www.w3.org/1999/xlink" x="0px" y="0px"
	 viewBox="0 0 414 108" style="enable-background:new 0 0 414 108;" xml:space="preserve">
<style type="text/css">
	.st0{fill:none;stroke:#000000;stroke-width:2;stroke-miterlimit:10;}
</style>
<g>
	<path d="M407,91c-3.2,0-6.3-0.1-9.5-0.1c-0.9,0-1.7-0.2-1.9-1.2c-0.2-1,0.4-1.6,1.3-1.7c1.8-0.1,2-1.3,2.1-2.8
		c0-3.7,0.2-7.3,0.1-11c-0.1-4.3-1.8-6.4-5.1-6.9c-3.3-0.5-6.7,1.4-8,4.6c-0.7,1.5-1,3.2-1,4.9c0,2.5,0,5,0,7.5
		c0,1.9-0.1,3.8,2.6,3.8c1,0,1.3,0.8,1.2,1.8c-0.1,0.8-0.8,1.1-1.4,1.1c-2.8,0-5.6,0-8.5,0c-0.8,0-1.2-0.6-1.3-1.3
		c-0.1-0.7,0.2-1.4,1-1.5c2.3-0.1,2.4-1.7,2.4-3.5c0-4.5,0-9,0.1-13.5c0.1-2.1-0.2-3.6-2.8-3.6c-1,0-1.4-0.8-1.2-1.8
		c0.1-0.8,0.8-1,1.5-1c1.2-0.1,2.3,0.1,3.5-0.1c2.7-0.4,3.1,1.2,2.9,3.3c1.7,0,2.2-1.5,3.2-2.2c3.3-2.1,6.8-2.6,10.4-0.9
		c3.5,1.6,4.4,4.8,4.4,8.3c0,3.5-0.1,7-0.1,10.5c0,3.8,0,3.8,4,4.3C407,89,407,90,407,91z"/>
	<path d="M234,5c0.3,0.7,0.6,1.5,0.8,2.2c0.4,1.4,0.1,2.6-1.2,3.4c-1.1,0.6-2.2,0.7-3.2,0c-1.3-0.8-1.6-2-1.2-3.4
		c0.2-0.8,1-1.3,0.8-2.2C231.3,5,232.7,5,234,5z"/>
	<path d="M151.4,74.7c-2.4,0.2-5.8-1.2-7.8,0.6c-2.3,2-0.6,5.7-1,8.6c-0.3,2.4-0.2,4.4,3.1,4.3c0.8,0,1.1,0.8,1,1.5
		c-0.1,0.7-0.5,1.2-1.3,1.3c-3.2,0-6.3,0-9.5,0c-0.7,0-1.3-0.3-1.4-1.1c-0.1-0.7,0.1-1.6,0.8-1.6c3.8,0,3-2.7,3.1-4.9
		c0.1-6.8,0.1-13.6,0.1-20.5c0-2.3,0.6-4.9-3.1-4.9c-0.7,0-1-0.8-0.9-1.5c0.1-0.7,0.6-1.2,1.4-1.2c3.2,0,6.3,0,9.5,0
		c0.7,0,1.2,0.5,1.4,1.2c0.2,1-0.5,1.7-1.4,1.7c-2.5,0-2.5,1.7-2.5,3.4c0.2,12.3-2,10.1,9.5,10.2c9.1,0.1,9.1,0,9.2-8.7
		c0-2.5,0.6-5.2-3.3-5.1c-0.4,0-0.8-0.5-0.8-1.1c0-0.7,0.3-1.4,1-1.5c3.3-0.1,6.6-0.1,10,0c0.8,0,1.2,0.6,1.3,1.3
		c0.1,0.7-0.2,1.5-1,1.4c-3.1-0.1-2.9,2-2.9,4.1c0,7.3-0.1,14.6-0.1,22c0,2-0.3,4.2,2.8,4.1c0.7,0,1.2,0.6,1.2,1.3
		c0,1.1-0.7,1.5-1.6,1.5c-3,0-6,0-9,0c-0.9,0-1.6-0.4-1.7-1.5c0-1,0.7-1.5,1.6-1.5c1.8,0,2.1-1.1,2.3-2.6
		C162.5,74.8,162.4,74.7,151.4,74.7z"/>
	<path d="M142.7,25.9c5.5-4.8,10-8.8,14.5-12.7c0.1-1.4-0.8-1.2-1.3-1.2c-1.2-0.1-1.9-0.5-1.7-1.8c0.2-1.1,1-1.2,1.8-1.2
		c2.8,0,5.7,0,8.5,0c0.7,0,1.3,0.1,1.5,1c0.1,0.7,0.1,1.6-0.6,1.7c-5.9,1.7-9.1,7-13.8,10.4c-1.5,1-2.7,2.4-4.5,4.1
		c6.5,5.1,10.7,12.3,18.4,15.7c0.7,0.3,1.1,0.7,1,1.5c-0.1,0.7-0.5,1.3-1.3,1.3c-3.2,0.1-6.3,0.1-9.5,0.1c-0.9,0-1.7-0.3-1.8-1.3
		c-0.1-1.4,0.9-1.6,1.9-1.7c0.3,0,0.6-0.2,1.5-0.7c-4.8-4.5-9.4-8.9-14.9-14.2c0,5,0,8.8,0,12.5c0,1.8,0.9,2.3,2.4,2.4
		c0.9,0,1.7,0.3,1.6,1.4c0,1-0.7,1.5-1.7,1.5c-3,0-6,0-9,0c-0.7,0-1.3-0.2-1.5-1c-0.2-1,0.2-1.7,1.2-1.7c2.7-0.1,2.6-1.9,2.6-3.8
		c0-7.2,0.1-14.3,0.1-21.5c0-2.2,0.6-4.9-3.1-4.9c-0.7,0-1-0.8-0.9-1.5c0.1-0.8,0.6-1.2,1.3-1.2c3.2,0,6.3,0,9.5,0
		c0.7,0,1.2,0.4,1.4,1.2c0.2,1-0.4,1.7-1.3,1.7c-2.5,0-2.5,1.6-2.5,3.4C142.7,18.5,142.7,21.7,142.7,25.9z"/>
	<path d="M319.3,67.7c3.9,8.9,0.7,14.3-8.4,15.4c-2.1,0.3-5.3,0.2-5.4,2.5c-0.1,2.6,3.1,2.2,5.1,2.6c2.8,0.6,5.6,0.9,8.3,1.7
		c5.5,1.6,6.8,7.2,2.6,11.2c-1.2,1.2-2.7,2-4.3,2.4c-4.3,1.2-8.6,1.2-12.8,0c-2.8-0.8-5.3-2.2-5.8-5.5c-0.5-3.3,1.4-5.3,4.3-6.5
		c0.3-0.1,0.5-0.4,1-0.9c-1.1-1.4-3.2-2.3-2.8-4.6c0.4-1.9,2.3-2.3,3.5-3.4c-0.3-0.4-0.6-0.7-1-1c-4-3.1-5.4-6.7-4-10.7
		c1.3-4,4.8-6.6,9.5-6.7c4.5-0.1,8.9,0.9,13.4,0.7c0.9,0,1.7,0.3,1.7,1.4c0,0.9-0.6,1.5-1.6,1.5C321.8,67.7,320.8,67.7,319.3,67.7z
		 M310.2,80.1c4.1,0,7.2-3,7.2-6.7c0-3.6-3-6.3-6.9-6.4c-4.1-0.1-7.4,2.8-7.5,6.4C303,77.1,306.2,80.1,310.2,80.1z M311.1,101.3
		c3.3,0,5.6-0.6,7.1-1.8c2.7-2.3,2.3-5.4-1.1-6.5c-2.8-0.9-5.8-1.3-8.8-1.3c-1.7,0-3.2,0.8-4.4,2c-2.2,2.1-2,4.5,0.5,6.1
		C306.4,101.2,308.8,101.2,311.1,101.3z"/>
	<path d="M250.6,22.5c1.6-1.3,2.6-2.4,3.8-3.1c6.6-3.9,13.6-0.5,14.2,7.1c0.3,3.3,0,6.7,0,10c0,2.5-1.1,5.6,3.2,5.7
		c0.4,0,0.8,0.6,0.8,1.1c0,0.8-0.4,1.4-1.1,1.4c-3,0.1-6,0.1-9,0.1c-0.7,0-1.2-0.4-1.4-1.2c-0.1-0.7,0.1-1.5,0.8-1.6
		c2.7-0.2,2.4-2.3,2.5-4.1c0.1-3.3,0.4-6.7,0.2-10c-0.2-4.2-2-6.4-5.3-6.8c-3.3-0.5-6.8,1.4-7.9,4.8c-1.6,4.7-0.8,9.6-0.8,14.4
		c0,1.5,1.6,1.4,2.6,1.8c0.7,0.3,0.9,1,0.6,1.6c-0.2,0.4-0.6,0.9-1,0.9c-2.8,0.1-5.7,0.1-8.5,0.1c-0.7,0-1.2-0.4-1.4-1.1
		c-0.1-0.7,0.1-1.5,0.8-1.6c2.7-0.3,2.4-2.3,2.4-4.1c0.1-4.2,0.2-8.3,0.3-12.5c0.1-2.1,0.1-4.1-2.9-4c-0.9,0-1.5-0.7-1.4-1.7
		c0.1-1,0.9-1.3,1.8-1.3c1.2-0.1,2.3-0.1,3.5,0C250.5,18.6,250.5,18.6,250.6,22.5z"/>
	<path d="M271.8,68.6c2-1.9,3.6-3.3,5.7-4c6.5-2.2,11.9,1.2,12.3,8c0.2,3.6,0,7.3,0,11c0,2.1-0.6,4.5,2.9,4.5c0.7,0,1.1,0.8,0.9,1.5
		c-0.1,0.4-0.5,1.1-0.8,1.1c-3.1,0.1-6.3,0.1-9.4,0c-0.4,0-0.9-0.4-0.9-1c-0.1-0.7,0-1.5,0.7-1.6c2.9-0.2,2.8-2.3,2.8-4.3
		c0-3.3,0.2-6.7,0-10c-0.2-3.9-1.9-5.9-5-6.5c-3.4-0.6-6.8,1.1-8.1,4.4c-1.9,4.8-0.9,9.8-0.9,14.8c0,1.3,1.3,1.2,2.3,1.4
		c0.9,0.2,1.5,0.7,1.3,1.7c-0.1,0.8-0.7,1.1-1.4,1.1c-2.8,0-5.6,0-8.5,0c-0.7,0-1.3-0.4-1.4-1.2c-0.1-0.7,0.1-1.5,0.8-1.5
		c3-0.2,2.6-2.4,2.6-4.4c0-4,0-8,0.2-12c0.1-2.3,0.1-4.4-3.1-4.2c-0.7,0-1.1-0.7-1.1-1.4c0-1.1,0.8-1.3,1.7-1.4c1-0.1,2,0,3-0.1
		C271,64.4,272.6,65.1,271.8,68.6z"/>
	<path d="M192,86.7c-3.5,4.3-7.1,5.6-11.6,4.3c-3.2-0.9-5-3.2-5.1-6.6c-0.1-3.1,1.2-5.5,4.1-6.8c3.1-1.4,6.4-1.8,9.7-1.7
		c2.6,0.1,3.1-1.1,2.9-3.4c-0.3-2.5-1.1-4.6-3.7-5.3c-2.7-0.8-5.3-0.5-7.7,0.8c-0.9,0.5-0.6,1.8-0.8,2.8c-0.2,1-1,1.2-1.9,1.1
		c-0.9-0.1-1.4-0.5-1.6-1.5c-0.7-3.2,0.1-4.6,3.2-5.6c2.6-0.8,5.2-1.1,7.9-0.9c5.7,0.5,8.4,3.2,8.5,9c0.1,3.8-0.1,7.6-0.2,11.5
		c0,1.7-0.1,3.4,2.3,3.6c1,0.1,1.3,0.9,1,1.8c-0.2,0.8-0.9,0.9-1.5,1c-0.5,0.1-1,0-1.5,0.1C193.5,91.2,191.3,91,192,86.7z
		 M184.7,88.5c3.2-0.1,5.7-2.1,6.8-5.5c1.1-3.4,0.6-4.2-2.9-4.2c-2,0-4,0-5.8,0.8c-2.8,1.1-3.9,2.9-3.3,5.2
		C180.1,87.2,182,88.5,184.7,88.5z"/>
	<path d="M346.8,77.7c0.3-10.5,8.8-16.5,18.1-12.6c0.8,0.3,1.5,0.7,2.2,1.2c5.3,3.7,6.7,12.5,3.2,19c-3.1,5.7-10.2,7.9-16.5,5.1
		C349,88.3,346.6,84,346.8,77.7z M350.9,77.9c0,6,3,10,7.8,10.3c5.4,0.4,9-3.6,9.2-10c0.2-6.3-3.3-10.8-8.4-10.9
		C354.4,67.1,350.9,71.5,350.9,77.9z"/>
	<path d="M174.7,32.5c0.5,8.8,5.7,11.4,16.9,8.3c0.8,1.5,0.9,2.6-1,3.5c-5.4,2.5-14.2,1.1-17.6-3c-3.9-4.7-3.9-14.2,0.1-19.1
		c3.1-3.8,8.8-5.2,13.6-3.4c4.1,1.6,6.9,6.2,6.9,11.2c0,1.6-0.8,2-2.1,2c-4,0-8,0-12,0C177.9,32,176.2,31.5,174.7,32.5z M181.6,28.9
		C181.6,28.9,181.6,28.9,181.6,28.9c1.7,0,3.3,0.1,5,0c2.6-0.1,3.2-1.1,2.2-3.5c-1-2.5-2.8-4.1-5.5-4.4c-3-0.4-5.5,0.8-7.3,3.2
		c-0.8,1.1-1.6,2.3-1.2,3.6c0.5,1.7,2.2,0.9,3.5,1C179.3,29,180.4,28.9,181.6,28.9z"/>
	<path d="M209.5,40.5c2.3-6.3,4.2-11.4,6.2-16.5c0.5-1.3,0.5-2.3-1.2-2.5c-1-0.1-1.4-0.8-1.3-1.7c0.1-1.1,0.9-1.3,1.8-1.3
		c2.2,0,4.3,0,6.5,0c0.9,0,1.7,0.3,2,1.2c0.3,0.9-0.1,1.8-1.1,1.9c-2.2,0.2-2.5,2-3,3.5c-2.3,5.7-4.5,11.5-6.7,17.2
		c-0.5,1.4-1,2.7-3,2.7c-2,0-2.6-1.2-3.2-2.6c-2.2-5.6-4.3-11.2-6.6-16.7c-0.7-1.8-1-4-3.6-4.2c-0.7-0.1-1-0.8-0.9-1.5
		c0.1-0.8,0.6-1.2,1.3-1.3c2.7-0.1,5.3-0.1,8,0c0.7,0,1.3,0.4,1.4,1.2c0.1,0.7,0,1.5-0.8,1.6c-2.2,0.3-2,1.5-1.4,3.1
		C205.6,29.4,207.3,34.5,209.5,40.5z"/>
	<path d="M330.3,77.7c0-1.7,0-3.3,0-5c0-2.4,0.8-5.2-3.2-5.2c-0.3,0-0.7-0.7-0.8-1.1c-0.1-0.7,0.2-1.5,0.9-1.5
		c3.4,0.1,3.4-2.2,3.6-4.6c0.1-1.8,1.6-2.7,3-2.1c1.2,0.6,0.9,1.6,0.9,2.6c0.3,3.8,0.3,3.7,3.8,4c1.5,0.1,4.1-1.1,4.1,1.3
		c0.1,2.8-2.7,1.5-4.3,1.6c-3.8,0.3-3.9,0.2-4.1,3.9c-0.1,3.7-0.2,7.3-0.1,11c0.2,4.8,1.5,5.8,6.2,5.5c0.5,0,1-0.1,1.5-0.3
		c0.7-0.2,1.4-0.1,1.6,0.7c0.3,0.9-0.2,1.7-0.9,2.1c-5.3,3.3-12-0.2-12.3-6.4C330.1,82,330.2,79.9,330.3,77.7
		C330.3,77.7,330.3,77.7,330.3,77.7z"/>
	<path d="M233.9,70.1c1.4-0.6,1.3-2.2,2.2-3.2c2-2.1,4.3-3,7.2-2.7c1.3,0.1,1.6,0.9,1.5,2.1c-0.1,1-0.5,1.6-1.5,1.5
		c-2.8-0.2-5.3,0.4-7.1,2.8c-1.9,2.5-2.5,5.4-2.4,8.5c0,1.7,0,3.3-0.1,5c-0.1,2.1-0.3,4.2,2.9,4c1,0,1.4,0.7,1.3,1.7
		c-0.1,0.8-0.6,1.1-1.3,1.2c-3,0-6,0-9,0c-0.6,0-1.3-0.1-1.5-1c-0.1-0.9,0-1.8,1-1.8c2.8-0.1,2.6-2,2.6-3.9c0-4.3,0.1-8.6,0.2-13
		c0-2-0.1-3.7-2.8-3.6c-1.1,0.1-2-0.5-1.8-1.8c0.2-1.1,1.1-1,1.9-1.1C232.9,64,233.7,64.6,233.9,70.1z"/>
	<path d="M212.4,70c1.7-3.7,4.1-5.8,7.8-5.9c1.4,0,2.7,0,2.7,2c-0.1,1.7-1.2,1.5-2.4,1.6c-5.1,0.5-7.7,3-8.4,8.2
		c-0.3,2.3-0.2,4.7-0.2,7c0,2.4-0.8,5.3,3.3,5.1c0.6,0,0.9,0.9,0.7,1.6c-0.1,0.8-0.7,1.1-1.4,1.1c-3,0-6,0-9,0
		c-0.7,0-1.3-0.3-1.4-1.1c-0.1-0.9,0.2-1.7,1.2-1.8c2.4-0.1,2.5-1.6,2.5-3.4c0-4.5,0-9,0.1-13.5c0.1-2.1-0.2-3.7-2.8-3.5
		c-0.9,0.1-1.7-0.5-1.7-1.4c0-1.4,1.1-1.4,2.1-1.5c0.3,0,0.7,0,1,0C211.5,64.5,211.5,64.5,212.4,70z"/>
	<path d="M234.3,30.5c0,2.2,0,4.3,0,6.5c0,2.5-0.4,5.2,3.4,5.1c0.4,0,0.8,0.4,0.9,1c0,0.8-0.4,1.5-1,1.5c-3.5,0.1-7,0.1-10.4,0
		c-0.3,0-0.7-0.6-0.9-1c-0.2-0.7,0-1.6,0.8-1.6c4,0,3.3-2.8,3.3-5.2c0.1-4,0-8,0.2-12c0.1-2.2-0.2-3.6-2.8-3.4
		c-0.9,0.1-1.6-0.4-1.7-1.4c-0.1-1.3,0.9-1.6,2-1.7c1,0,2-0.1,3,0c3.6,0.1,3.7,0.1,3.7,3.6c0,2.8,0,5.6,0,8.5
		C234.5,30.5,234.4,30.5,234.3,30.5z"/>
	<path d="M255.6,76.6c0,2.2,0,4.3,0,6.5c0,2.4-0.7,5.2,3.3,5.1c0.7,0,1,0.9,0.8,1.5c-0.1,0.4-0.6,1-0.9,1c-3.5,0.1-7,0.1-10.4,0
		c-0.7,0-1.1-0.7-1.1-1.4c0-0.8,0.5-1.3,1.2-1.3c3,0.2,3.1-1.6,3-3.8c0-4.3,0.1-8.6,0.2-12.9c0.1-2,0-3.8-2.7-3.6
		c-1.1,0.1-2-0.3-1.9-1.7c0.2-1.4,1.3-1.2,2.3-1.3c0.8-0.1,1.7,0,2.5,0c3.7,0.1,3.8,0.1,3.8,3.9c0,2.7,0,5.3,0,8
		C255.7,76.6,255.6,76.6,255.6,76.6z"/>
	<path d="M256.1,54.3c-0.1,1.7-1.1,2.7-2.8,2.8c-1.7,0.1-3.3-1.3-3.2-3c0.1-1.6,1.8-3.2,3.3-2.9C255.1,51.6,256.1,52.6,256.1,54.3z"
		/>
	<path d="M55.6,72.6c-7.7-7.2-15.1-14.3-23.5-22.2c0,7.8-0.1,14.5,0,21.2c0,2.3,2.1,1.7,3.5,1.7c1.9,0,2.8,0.7,2.7,2.6
		c-0.1,1.4-0.5,2.2-2,2.3c-5.3,0-10.7,0-16,0c-1.5,0-1.9-1-1.9-2.3c0-1.3,0.3-2.3,1.8-2.5c1.5-0.2,3.3,0.6,4.3-0.6
		c1.3-1.5,0.6-3.5,0.6-5.3c0-12.2,0-24.3,0-36.5c0-4,0-4.2-3.9-4.4c-2.2-0.1-2.9-1-2.8-3c0.1-2.1,1.3-2.4,3-2.3c4.7,0.1,9.3,0,14,0
		c1.6,0,2.9,0.1,3,2.3c0.1,2.1-0.6,3.3-2.8,3c-3.1-0.4-3.5,1.3-3.5,3.9c0.1,5.6,0,11.3,0,18.1c8.6-7.5,16.3-14.3,24.1-21.1
		c-1.2-1.5-2.5-0.8-3.5-0.8c-2,0-2.5-0.9-2.6-2.7c0-2,0.8-2.6,2.7-2.6c7.2,0.1,14.3,0,21.5,0c1.7,0,2.8,0.4,2.8,2.5
		c0.1,2.2-0.9,3.1-3,2.8c-2.8-0.3-3.3,1.2-3.3,3.6c0.1,4.7,0.1,9.3,0,14c-0.1,2.4,0.5,3.7,3.3,3.6c7.8-0.1,15.7-0.1,23.5,0
		c2.8,0,3.4-1.2,3.3-3.7c-0.1-4.5,0-9,0-13.5c0-3.6-0.1-3.6-3.8-4.1c-2.6-0.3-3.1-1.1-2.8-3.5c0.2-1.2,0.7-1.8,1.9-1.8
		c5.3,0,10.7,0,16,0c1.5,0,1.9,1,2,2.3c0,1.4-0.1,2.7-2,2.9c-0.5,0-1,0.1-1.5,0c-2.1-0.2-2.9,0.8-2.9,2.9c0,13.7,0,27.3,0,41
		c0,2.1,0.8,3.1,2.9,2.9c0.3,0,0.7,0,1,0c1.6,0,2.5,0.7,2.5,2.4c0,1.6-0.6,2.5-2.3,2.5c-5.2,0-10.3,0-15.5,0c-1.5,0-2-0.8-2-2.2
		c0-1.5,0.3-2.7,2.1-2.6c0.7,0,1.3,0,2,0c1.6,0.1,2.5-0.6,2.5-2.3c0-5.3,0-10.7,0-16c0-1.7-0.8-2.4-2.4-2.4c-8.3,0-16.7,0-25,0
		c-2,0-2.6,1-2.6,2.8c0,4.8,0.1,9.7,0,14.5c-0.1,2.5,0.7,3.8,3.4,3.5c1.7-0.2,2.8,0.3,2.8,2.4c0,2.1-1.1,2.5-2.8,2.5
		c-7.2,0-14.3,0-21.5,0c-1.6,0-2.9-0.1-3-2.3c-0.1-2.5,1.3-2.7,3.2-2.6C53.7,73.4,54.6,73.7,55.6,72.6z M63.8,71.7
		c0-15.2,0-29.3,0-43.5c-0.7,0.2-1.2,0.2-1.6,0.5c-7,6.1-14,12.2-21,18.3c-1.8,1.6-1.3,2.6,0.2,3.9c5.9,5.4,11.6,10.9,17.5,16.3
		C60.3,68.5,61.7,69.8,63.8,71.7z"/>
	<rect x="9" y="8" class="st0" width="115.5" height="83"/>
</g>
</svg>
