<?xml version="1.0" encoding="utf-8"?>
<!-- Generator: Adobe Illustrator 21.1.0, SVG Export Plug-In . SVG Version: 6.00 Build 0)  -->
<svg version="1.1" id="Layer_1" xmlns="http://www.w3.org/2000/svg" xmlns:xlink="http://www.w3.org/1999/xlink" x="0px" y="0px"
	 viewBox="0 0 26 26" style="enable-background:new 0 0 26 26;" xml:space="preserve">
<style type="text/css">
	.st0{fill:#383838;}
	.st1{fill:#00CFFF;}
</style>
<path class="st0" d="M8.3,0c0,0-0.6,0-0.8,0C6,0,2.9,2.3,3,7.6c0.1,4.8,2.6,5.8,2.6,5.8C5.2,12.7,4,10.3,4,7.6C4,2.7,6.5,0.4,8.3,0z
	 M9.6,0C8,0,5,2.3,5,7.6c0,3.5,1.4,5.5,1.4,5.5l5.8-2.3c0,0,0.8-1.9,0.8-5.3C13,1.5,11.1,0,9.6,0z M13.6,11.8c-0.4,0-0.7,0-1,0L7,14
	c1.2,2.2,5.5,3.5,8.1,3.5c1.9,0,5.9-0.5,5.9-2.3C21,12.8,16.3,11.8,13.6,11.8z M13.4,13c0.3,0,0.6,0,0.9,0c2.4,0.1,4.3,0.9,4.3,1.8
	c0,0.9-1.9,1.5-4.3,1.3C11.9,16,10,15.2,10,14.3C10,13.6,11.5,13,13.4,13z M5.6,14c0,1.9,1,4.1,3,5.6l-0.4,4.5c0,0,1.4,1.9,5.4,1.9
	c3.7,0,4.4-1.1,4.4-1.1c-0.3-2.2-0.9-3.3-0.9-3.3c-3.5,0.8-5,0.1-6.2-0.8c0.9,0.3,1.9,0.5,2.9,0.5c3.5,0,5.5-1.7,6.2-3.7
	C20,17.6,11.4,20.8,5.6,14z"/>
<path class="st1" d="M13.4,13c0.3,0,0.6,0,0.9,0c2.4,0.1,4.3,0.9,4.3,1.8c0,0.9-1.9,1.5-4.3,1.3C11.9,16,10,15.2,10,14.3
	C10,13.6,11.5,13,13.4,13z"/>
</svg>
